<svg width="373" height="406" viewBox="0 0 373 406" fill="none" xmlns="http://www.w3.org/2000/svg">
<path d="M203.314 94.4433V211.685C203.345 223.495 199.626 237.568 191.829 248.095C187.936 253.378 183.08 257.816 177.124 260.97C171.159 264.115 164.053 266.026 155.348 266.031C152.452 266.035 149.375 265.817 146.114 265.353C137.846 264.177 132.683 261.549 129.769 258.849C126.869 256.11 125.876 253.387 125.831 250.403C125.817 246.973 127.466 243.039 130.806 239.818C134.139 236.602 139.035 234.165 145.258 233.719C147.383 233.568 149.37 233.492 151.233 233.492C166.869 233.528 173.779 238.241 176.429 240.852C179.098 243.524 183.428 243.529 186.105 240.86C188.778 238.187 188.778 233.857 186.105 231.184C180.607 225.638 169.662 219.78 151.233 219.807C149.023 219.811 146.711 219.896 144.283 220.065C134.967 220.724 126.971 224.484 121.296 229.973C115.634 235.452 112.163 242.714 112.145 250.403C112.1 257.028 114.938 263.843 120.489 268.908C126.032 274.005 133.952 277.436 144.184 278.906C148.047 279.45 151.767 279.717 155.348 279.721C166.094 279.725 175.56 277.284 183.521 273.065C195.487 266.739 203.889 256.609 209.226 245.601C214.572 234.561 216.986 222.578 217 211.685V94.4433C217 90.6654 213.935 87.6003 210.157 87.6003C206.379 87.6003 203.314 90.6654 203.314 94.4433Z" fill="#EDD87E"/>
<path d="M130.026 123.867C133.684 124.812 137.417 122.607 138.357 118.95L162.052 26.9738C162.997 23.3161 160.795 19.5834 157.134 18.6386C153.477 17.6944 149.743 19.8994 148.803 23.5565L125.108 115.533C124.164 119.195 126.364 122.928 130.026 123.867Z" fill="#EDD87E"/>
<path d="M154.172 129.258C157.83 130.203 161.562 127.997 162.502 124.34L184.273 39.8444C185.218 36.1825 183.016 32.4535 179.355 31.5135C175.698 30.5693 171.964 32.77 171.024 36.4319L149.254 120.923C148.309 124.585 150.51 128.318 154.172 129.258Z" fill="#EDD87E"/>
<path d="M179.218 136.907C182.875 137.851 186.609 135.651 187.549 131.989L208.286 51.5112C209.23 47.8535 207.03 44.1203 203.368 43.1756C199.71 42.2314 195.977 44.4363 195.037 48.094L174.3 128.576C173.355 132.234 175.556 135.963 179.218 136.907Z" fill="#EDD87E"/>
<path d="M101.188 99.8341C106.382 101.785 113.19 103.812 120.353 105.745L125.165 87.0838L113.016 82.2995C108.454 80.4999 107.198 77.2965 108.615 73.7016C109.906 70.4184 112.477 67.7012 117.168 69.3492L128.577 73.8442L132.662 57.9798L123.124 54.2248C118.945 52.679 118.54 48.4914 119.832 45.2077C121.249 41.6171 124.353 40.1297 128.911 41.9203L136.07 44.7407L141.131 25.1032C137.932 23.5393 134.898 22.1318 132.221 21.0274C113.978 13.512 95.0849 19.2853 85.1332 24.333C79.5467 27.1661 73.8133 30.3961 67.4693 27.8965L0 0V28.7561L58.5054 50.6613C64.8495 53.1604 66.8411 59.4278 68.9923 65.3085C72.8329 75.7906 82.7182 92.8975 101.188 99.8341Z" fill="#878787"/>
<path d="M115.115 29.9586C110.756 30.8308 106.669 33.3491 102.23 33.5746C94.6956 33.9574 90.335 33.4016 89.9945 31.1223C89.5609 28.2209 96.6438 23.2478 106.961 21.7061C117.279 20.1644 132.879 20.996 131.814 27.7418C130.188 32.0788 122.146 28.5516 115.115 29.9586Z" fill="white"/>
<path d="M29.7485 27.5841C18.3316 23.5101 10.214 15.8875 11.1391 13.2953C12.0641 10.703 21.6814 14.1227 33.0983 18.1967C44.5152 22.2708 54.9691 24.9919 54.0441 27.5842C53.119 30.1764 41.1654 31.6582 29.7485 27.5841Z" fill="white"/>
<circle cx="147" cy="242" r="50" fill="#EDD87E"/>
<circle cx="147" cy="242" r="16" stroke="black" stroke-width="8"/>
<circle cx="147" cy="242" r="36" stroke="black" stroke-width="8"/>
<circle cx="319" cy="258" r="50" fill="#EDD87E"/>
<circle cx="319" cy="258" r="16" stroke="black" stroke-width="8"/>
<circle cx="319" cy="258" r="36" stroke="black" stroke-width="8"/>
<circle cx="237" cy="262" r="50" fill="#EDD87E"/>
<circle cx="237" cy="262" r="16" stroke="black" stroke-width="8"/>
<circle cx="237" cy="262" r="36" stroke="black" stroke-width="8"/>
<circle cx="63" cy="253" r="50" fill="#EDD87E"/>
<circle cx="63" cy="253" r="16" stroke="black" stroke-width="8"/>
<circle cx="63" cy="253" r="36" stroke="black" stroke-width="8"/>
<path d="M0 249H373V249C373 272.511 365.872 295.469 352.555 314.846L344.269 326.903C335.898 339.084 325.913 350.072 314.588 359.567L312.093 361.659C278.376 389.927 235.782 405.42 191.783 405.42H182.018C138.238 405.42 95.8128 390.231 61.9796 362.445L58.8872 359.905C47.0577 350.19 36.6725 338.839 28.0444 326.195L20.346 314.913C7.09056 295.488 0 272.517 0 249V249Z" fill="black"/>
<path d="M14.2516 240H365.768L365.937 240.469C366.898 243.149 367.578 245.922 367.965 248.743L368 249H13L13.6272 244.5L14.2516 240Z" fill="black" fill-opacity="0.74"/>
<path d="M0 249H373V249C373 271.203 365.974 292.837 352.927 310.803L343.91 323.22C335.778 334.419 326.158 344.458 315.315 353.061L311.424 356.149C278.057 382.624 236.715 397.033 194.12 397.033H179.691C137.313 397.033 96.1418 382.914 62.6814 356.908L58.1174 353.36C46.7989 344.563 36.7959 334.193 28.4119 322.566L19.9795 310.871C6.99008 292.856 0 271.21 0 249V249Z" fill="#FEF050"/>
<path d="M351.674 270.419C359.326 295.529 340.558 313.344 319.889 334.744C302.603 349.312 244.978 383.11 259.726 361.015C266.156 351.38 287.489 341.125 309.829 322.223C334.211 301.594 346.141 262.08 351.674 270.419Z" fill="white"/>
</svg>
